HIERARCHY
ROOT Hips
{
	OFFSET 0.00000 0.00000 0.00000
	CHANNELS 6 Xposition Yposition Zposition Zrotation Yrotation Xrotation 
	JOINT LHipJoint
	{
		OFFSET 0 0 0
		CHANNELS 3 Zrotation Yrotation Xrotation
		JOINT LeftHip
		{
			OFFSET 1.61024 -1.73873 0.75100
			CHANNELS 3 Zrotation Yrotation Xrotation
			JOINT LeftKnee
			{
				OFFSET 2.29819 -6.31424 0.00000
				CHANNELS 3 Zrotation Yrotation Xrotation
				JOINT LeftAnkle
				{
					OFFSET 2.76618 -7.60002 0.00000
					CHANNELS 3 Zrotation Yrotation Xrotation
					JOINT LeftToe
					{
						OFFSET 0.16838 -0.46263 2.02361
						CHANNELS 3 Zrotation Yrotation Xrotation
						End Site
						{
							OFFSET 0.00000 -0.00000 1.04662
						}
					}
				}
			}
		}
	}
	JOINT RHipJoint
	{
		OFFSET 0 0 0
		CHANNELS 3 Zrotation Yrotation Xrotation
		JOINT RightHip
		{
			OFFSET -1.46153 -1.73873 0.75100
			CHANNELS 3 Zrotation Yrotation Xrotation
			JOINT RightKnee
			{
				OFFSET -2.38373 -6.54924 0.00000
				CHANNELS 3 Zrotation Yrotation Xrotation
				JOINT RightAnkle
				{
					OFFSET -2.80314 -7.70157 0.00000
					CHANNELS 3 Zrotation Yrotation Xrotation
					JOINT RightToe
					{
						OFFSET -0.16142 -0.44349 2.02101
						CHANNELS 3 Zrotation Yrotation Xrotation
						End Site
						{
							OFFSET -0.00000 -0.00000 1.04381
						}
					}
				}
			}
		}
	}
	JOINT lowerback
	{
		OFFSET 0 0 0
		CHANNELS 3 Zrotation Yrotation Xrotation
		JOINT Chest
		{
			OFFSET -0.01629 1.66985 0.14750
			CHANNELS 3 Zrotation Yrotation Xrotation
			JOINT Chest2
			{
				OFFSET 0.02086 1.62378 0.20980
				CHANNELS 3 Zrotation Yrotation Xrotation
				JOINT lowerneck
				{
					OFFSET 0 0 0
					CHANNELS 3 Zrotation Yrotation Xrotation
					JOINT Neck
					{
						OFFSET -0.05690 1.78719 0.08702
						CHANNELS 3 Zrotation Yrotation Xrotation
						JOINT Head
						{
							OFFSET 0.16035 1.73871 -0.38470
							CHANNELS 3 Zrotation Yrotation Xrotation
							End Site
							{
								OFFSET 0.05645 1.80914 -0.14081
							}
						}
					}
				}
				JOINT LeftCollar
				{
					OFFSET 0 0 0
					CHANNELS 3 Zrotation Yrotation Xrotation
					JOINT LeftShoulder
					{
						OFFSET 2.83089 1.66494 -0.46008
CHANNELS 3 Zrotation Xrotation Yrotation
						JOINT LeftElbow
						{
OFFSET 0 -5.548930 -0.000000
CHANNELS 3 Zrotation Xrotation Yrotation
							JOINT LeftWrist
							{
OFFSET 0 -3.028980 -0.000000
CHANNELS 3 Zrotation Xrotation Yrotation
								JOINT lhand
								{
									OFFSET 0 0 0
CHANNELS 3 Zrotation Xrotation Yrotation
									JOINT LFingers
									{
OFFSET 0 -0.640950 -0.000000
CHANNELS 3 Zrotation Xrotation Yrotation
										End Site
										{
OFFSET 0 -0.516750 -0.000000
										}
									}
								}
								JOINT LThumb
								{
OFFSET 0 0.000000 0.000000
CHANNELS 3 Zrotation Xrotation Yrotation
									End Site
									{
OFFSET 0 -0.524640 0.524640
									}
								}
							}
						}
					}
				}
				JOINT RightCollar
				{
					OFFSET 0 0 0
					CHANNELS 3 Zrotation Yrotation Xrotation
					JOINT RightShoulder
					{
						OFFSET -2.84442 1.45761 -0.18088
CHANNELS 3 Zrotation Xrotation Yrotation
						JOINT RightElbow
						{
OFFSET 0 -5.351900 -0.000000
CHANNELS 3 Zrotation Xrotation Yrotation
							JOINT RightWrist
							{
OFFSET 0 -3.025310 -0.000000
CHANNELS 3 Zrotation Xrotation Yrotation
								JOINT rhand
								{
									OFFSET 0 0 0
CHANNELS 3 Zrotation Xrotation Yrotation
									JOINT RFingers
									{
OFFSET 0 -0.783890 -0.000000
CHANNELS 3 Zrotation Xrotation Yrotation
										End Site
										{
OFFSET 0 -0.631990 -0.000000
										}
									}
								}
								JOINT RThumb
								{
OFFSET 0 0.000000 0.000000
CHANNELS 3 Zrotation Xrotation Yrotation
									End Site
									{
OFFSET 0 -0.641640 0.641640
									}
								}
							}
						}
					}
				}
			}
		}
	}
}
MOTION
Frames: 12
Frame Time: 0.008333333333333333
-0.008680 17.867099 0.716901 -714.466514 102.264790 -696.436471 0.000000 0.000000 0.000000 -9.783121 -32.029309 -2.742804 0.000000 0.000000 0.000000 -2.216742 25.792438 -15.933342 1.176320 -6.883934 -19.372055 0.000000 0.000000 0.000000 20.185219 12.986190 -13.918629 -0.615531 -5.021204 13.969028 0.625507 -20.841464 -24.313950 -0.199885 2.878848 -7.941693 -1.500031 -0.420079 -4.756774 -0.098679 -0.135900 -9.099894 0.714335 0.213605 -6.816520 -7.832549 -6.060945 -7.428791 11.462293 -8.017947 4.153294 4.319723 -3.666543 3.241170 0.000000 0.000000 0.000000 10.661857 28.312889 -7.238454 70.931498 -58.580282 43.564856 54.084792 -46.589768 -35.082481 0.000000 0.000000 0.000000 -7.125000 0.000000 0.000000 47.394367 76.155417 -36.244706 0.000000 0.000000 0.000000 -10.963649 22.723231 -5.911361 -56.866804 -55.415166 -31.747537 -44.488176 -81.506438 -6.469303 0.000000 0.000000 0.000000 7.125000 0.000000 0.000000 -12.757860 21.036118 -7.513225
0.035582 17.858783 0.664478 -713.613977 99.127721 -697.471312 0.000000 0.000000 0.000000 -12.171491 -27.938117 -0.600654 0.000000 0.000000 0.000000 -1.968444 24.580974 -15.826952 1.157637 -6.830779 -19.215160 0.000000 0.000000 0.000000 19.776377 13.364747 -11.964373 -0.660701 -5.198755 14.476218 0.544063 -19.769105 -23.222016 -0.325254 3.665425 -10.137315 -1.209439 -1.192588 -5.816667 0.542919 -1.113210 -9.316229 1.219351 -0.265006 -6.417678 -6.340299 -3.519159 -9.174556 7.273540 -4.760210 12.205526 2.964022 -2.090059 5.510237 0.000000 0.000000 0.000000 21.895584 15.579927 -12.390306 76.750434 -59.325996 48.551548 53.219356 -43.988872 -29.595703 0.000000 0.000000 0.000000 -7.125000 0.000000 0.000000 37.486704 70.183752 -23.646224 0.000000 0.000000 0.000000 -19.200459 16.589308 -1.821779 -88.292658 -59.981111 -58.521564 -47.732593 -78.757859 -11.435733 0.000000 0.000000 0.000000 7.125000 0.000000 0.000000 -13.857239 13.582307 -10.534436
-0.060404 17.862752 0.674060 -702.778227 94.282806 -687.092821 0.000000 0.000000 0.000000 -13.008053 -22.330484 -1.181527 0.000000 0.000000 0.000000 -1.618117 22.935374 -16.478347 0.800366 -5.709615 -15.944251 0.000000 0.000000 0.000000 19.160995 14.577388 -12.499402 -0.716002 -5.407478 15.074528 0.347500 -17.086180 -20.703794 -0.509407 4.574732 -12.699557 -1.377880 -1.365732 -6.979745 0.836989 -1.287535 -9.716791 1.603082 -0.318401 -6.181631 -3.912864 -0.853322 -10.413788 4.196511 -1.053177 19.082791 1.944957 -0.292072 7.626057 0.000000 0.000000 0.000000 28.429474 -2.771996 -40.863328 81.809896 -59.744889 52.913245 41.696633 -53.075230 -25.535330 0.000000 0.000000 0.000000 -7.125000 0.000000 0.000000 15.081649 61.963803 -6.296199 0.000000 0.000000 0.000000 -24.488517 4.046317 26.282025 -115.067324 -57.486415 -81.525675 -41.342187 -62.695858 -13.164759 0.000000 0.000000 0.000000 7.125000 0.000000 0.000000 -9.387319 12.845685 -7.164752
-0.181091 17.856693 0.650165 -666.603367 91.762345 -652.569503 0.000000 0.000000 0.000000 -14.066413 -18.354838 -0.284821 0.000000 0.000000 0.000000 -1.365918 21.780915 -17.235364 0.570862 -4.838019 -13.447262 0.000000 0.000000 0.000000 19.084013 14.277628 -12.033963 -0.790251 -5.674682 15.843338 0.185629 -14.813348 -18.902470 -0.789524 5.672066 -15.835819 -1.752561 -2.015765 -6.016035 0.732836 -2.297604 -8.434818 1.696028 -0.882115 -5.292847 -1.666316 1.858062 -13.605546 2.990385 2.604434 23.112078 1.649797 1.535371 9.466760 0.000000 0.000000 0.000000 22.671412 -20.858493 -76.552770 87.974505 -59.984278 58.245934 39.422064 -67.229739 -29.001282 0.000000 0.000000 0.000000 -7.125000 0.000000 0.000000 11.768332 65.280766 -5.806580 0.000000 0.000000 0.000000 -28.770049 -8.954007 61.994048 -113.735406 -57.760269 -80.400877 -33.119962 -49.602769 -4.272963 0.000000 0.000000 0.000000 7.125000 0.000000 0.000000 -4.849257 24.878693 -2.371692
-0.297878 17.869000 0.657895 -651.557327 91.782573 -637.332648 0.000000 0.000000 0.000000 -13.589803 -17.492354 -1.415987 0.000000 0.000000 0.000000 -1.405617 21.608980 -15.879173 0.692415 -5.318624 -14.819815 0.000000 0.000000 0.000000 19.188053 14.578238 -12.307517 -0.725038 -5.440655 15.169766 0.239136 -14.901798 -18.366327 -0.688084 5.302930 -14.774707 -2.600141 -3.064053 -3.849741 0.017532 -3.868711 -7.183098 1.479764 -1.701858 -5.112818 -1.078152 4.244236 -14.918163 2.613555 5.887814 23.109427 1.844357 3.053514 9.654857 0.000000 0.000000 0.000000 9.441377 -30.077097 -105.657645 102.350501 -59.415146 70.674773 51.151715 -76.745828 -30.281774 0.000000 0.000000 0.000000 -7.125000 0.000000 0.000000 33.344124 70.349723 -20.948492 0.000000 0.000000 0.000000 -41.204747 -10.654713 70.372642 -121.803032 -55.808894 -87.154597 -12.786550 -54.594193 9.758695 0.000000 0.000000 0.000000 7.125000 0.000000 0.000000 12.368040 39.683320 1.649508
-0.424817 17.888506 0.705377 -633.988633 92.057820 -618.512402 0.000000 0.000000 0.000000 -12.425730 -16.687976 -3.719429 0.000000 0.000000 0.000000 -1.363904 21.038167 -14.608068 0.769613 -5.601566 -15.632566 0.000000 0.000000 0.000000 19.332408 15.092729 -13.713224 -0.645526 -5.139612 14.307275 0.293658 -14.845107 -17.538532 -0.701574 5.353849 -14.920760 -3.264110 -4.290666 -1.815252 -1.791781 -5.690349 -5.658671 0.081290 -2.670718 -4.704431 0.934154 7.478995 -13.431432 1.378644 10.281561 22.819713 1.559732 5.138522 9.370095 0.000000 0.000000 0.000000 -0.692151 -33.674217 -114.211804 119.493691 -56.443215 85.237219 57.476551 -87.005347 -23.063936 0.000000 0.000000 0.000000 -7.125000 0.000000 0.000000 39.827369 63.961268 -19.809120 0.000000 0.000000 0.000000 -67.307896 -14.350376 65.839910 -139.168113 -48.554908 -100.939453 -15.052638 -74.352980 16.511489 0.000000 0.000000 0.000000 7.125000 0.000000 0.000000 12.090676 46.679566 -0.508383
-0.684303 17.914468 0.882040 -628.240790 92.794296 -612.053586 0.000000 0.000000 0.000000 -10.417933 -17.350718 -10.203533 0.169553 2.650180 7.306372 -1.105187 19.912834 -16.170393 0.835617 -5.831240 -16.295585 0.000000 0.000000 0.000000 20.491887 14.541659 -15.081455 -0.528860 -4.660173 12.941769 0.358679 -14.121015 -15.212651 -0.846209 5.867265 -16.399837 -5.724363 -4.823752 2.749753 -4.161455 -6.741242 -2.815976 -0.711963 -3.174489 -4.308303 3.503704 10.252619 -11.088793 -0.385654 14.003076 20.894406 0.828844 6.919696 8.606754 0.000000 0.000000 0.000000 -8.404883 -37.138309 -118.216337 138.596669 -48.877990 100.509568 52.703722 -89.476242 -24.294266 0.000000 0.000000 0.000000 -7.125000 0.000000 0.000000 31.887047 63.879183 -15.352759 0.000000 0.000000 0.000000 -96.165954 -15.756175 52.382712 -153.906130 -37.298935 -111.054590 -19.727509 -88.450427 16.853163 0.000000 0.000000 0.000000 7.125000 0.000000 0.000000 7.826495 47.664188 -0.516929
-1.067436 17.890444 1.069841 -636.384773 96.174324 -618.573621 0.000000 0.000000 0.000000 -4.555744 -16.802275 -19.936307 0.838409 5.839934 16.320961 -0.671144 17.311608 -16.838678 1.038586 -6.479509 -18.183004 0.000000 0.000000 0.000000 24.901210 12.168458 -17.397124 -0.293241 -3.481972 9.623668 0.272571 -11.295595 -11.120840 -0.795087 5.691067 -15.890818 -7.081725 -4.694190 9.458845 -7.527425 -7.005215 0.802479 -3.032748 -3.244239 -4.558024 5.762370 11.394258 -9.542914 -0.104289 14.910579 16.037245 0.408920 7.540600 6.902667 0.000000 0.000000 0.000000 -7.612008 -36.567967 -118.901482 146.469090 -43.734144 106.212238 51.954919 -74.746772 -31.993184 0.000000 0.000000 0.000000 -7.125000 0.000000 0.000000 36.843857 72.462229 -24.958981 0.000000 0.000000 0.000000 -105.261973 -13.922615 48.093727 -159.590274 -31.132690 -114.258245 -27.163512 -92.658034 14.116145 0.000000 0.000000 0.000000 7.125000 0.000000 0.000000 0.281505 45.761972 -0.007935
-1.485458 17.751593 1.101159 -658.297212 101.599172 -631.916105 0.000000 0.000000 0.000000 4.853456 -16.696892 -38.679542 1.925144 8.708112 24.886607 -0.254567 12.635446 -14.186105 1.472706 -7.667628 -21.709427 0.000000 0.000000 0.000000 29.306105 11.902610 -29.767180 -0.339485 -3.744172 10.358062 0.123935 -7.935053 -8.137293 -0.909927 6.078448 -17.012269 -7.128675 -3.682899 14.187378 -9.120460 -5.872633 2.887098 -4.647641 -2.595939 -5.122637 3.996932 9.350642 -10.114067 2.029624 11.913545 8.888928 0.804739 6.138985 4.412247 0.000000 0.000000 0.000000 -3.568115 -38.090153 -114.463477 144.766716 -44.976954 105.021675 56.329892 -81.585834 -31.190225 0.000000 0.000000 0.000000 -7.125000 0.000000 0.000000 47.743731 72.674130 -33.357481 0.000000 0.000000 0.000000 -96.666710 -15.523484 52.952384 -158.478452 -32.431182 -113.672229 -32.200521 -91.726900 10.741031 0.000000 0.000000 0.000000 7.125000 0.000000 0.000000 -4.639613 42.567714 -0.281047
-1.754689 17.559269 0.922136 -677.773471 106.530933 -637.619688 0.000000 0.000000 0.000000 15.186477 -19.828280 -57.587017 2.067874 9.005993 25.814120 -0.478529 13.485212 -11.244754 1.585005 -7.940291 -22.533797 0.000000 0.000000 0.000000 27.441881 16.932685 -47.299800 -0.548269 -4.743072 13.177242 0.295690 -10.152677 -7.298944 -1.054426 6.529099 -18.327614 -7.770819 -1.888212 18.574652 -8.328500 -3.935890 3.806951 -3.700904 -1.566859 -6.336446 -0.067727 5.451332 -11.275905 4.329326 7.319004 0.479667 1.763523 3.867093 1.913526 0.000000 0.000000 0.000000 2.357715 -45.872695 -106.884132 129.598049 -53.150783 93.503046 55.283792 -80.143210 -33.838000 0.000000 0.000000 0.000000 -7.125000 0.000000 0.000000 49.087004 75.132714 -36.719673 0.000000 0.000000 0.000000 -87.954658 -24.051113 54.108215 -147.721955 -42.762497 -107.068904 -38.133320 -88.971632 6.099559 0.000000 0.000000 0.000000 7.125000 0.000000 0.000000 -9.730040 37.554343 -1.803838
-1.768095 17.236833 0.672286 -681.932028 110.844105 -628.391743 0.000000 0.000000 0.000000 24.724327 -17.029971 -75.619373 2.652835 10.110605 29.335804 -0.602999 14.155400 -9.458783 2.092528 -9.055985 -25.970788 0.000000 0.000000 0.000000 28.802293 19.808905 -63.247589 -0.733798 -5.472716 15.261970 0.092557 -6.265245 -5.699773 -1.791128 8.416697 -23.987132 -8.547738 0.698381 24.260363 -6.518146 -1.608872 2.722497 -1.940249 -0.351868 -10.490269 -2.757872 1.715835 -9.891114 6.249729 3.157959 -7.100958 2.534311 1.842487 -0.712996 0.000000 0.000000 0.000000 4.615861 -54.716948 -96.786361 87.210481 -59.966662 57.584549 54.112143 -77.056449 -31.205584 0.000000 0.000000 0.000000 -7.125000 0.000000 0.000000 41.565425 72.177296 -28.200927 0.000000 0.000000 0.000000 -83.465386 -41.457422 51.731417 -111.339499 -58.201226 -78.368195 -37.647334 -81.010781 7.558363 0.000000 0.000000 0.000000 7.125000 0.000000 0.000000 -9.433638 39.324797 -1.333074
-1.557496 16.993448 0.435656 -680.742646 112.399107 -616.182915 0.000000 0.000000 0.000000 30.689785 -12.691363 -86.827162 2.990236 10.679326 31.205756 -0.794035 16.160135 -10.785687 1.904753 -8.664766 -24.752232 0.000000 0.000000 0.000000 27.098752 24.517764 -73.339023 -0.654790 -5.175849 14.410836 0.078451 -5.538789 -4.643111 -1.798031 8.431882 -24.033905 -10.438316 1.281399 24.556647 -7.282953 -1.124387 4.388949 -1.850391 -0.097270 -8.717774 -4.854460 -0.009773 -9.596152 9.553075 2.051565 -14.661825 3.725876 1.433078 -2.914084 0.000000 0.000000 0.000000 -2.218486 -70.317030 -82.957075 34.868347 -44.700398 14.726616 34.184012 -75.756931 -30.207869 0.000000 0.000000 0.000000 -7.125000 0.000000 0.000000 4.042497 65.076767 -1.975713 0.000000 0.000000 0.000000 -82.369035 -67.926904 38.337966 -45.352258 -50.925304 -22.516197 -35.954570 -68.070729 4.187827 0.000000 0.000000 0.000000 7.125000 0.000000 0.000000 -7.731449 35.063684 -1.901042
